# xmcd CD database file
#
# Track frame offsets:
#	150
#	17154
#	34239
#	53910
#	70559
#	87639
#	106120
#	120183
#	139228
#	157425
#	177917
#	193942
#
# Disc length: 2804 seconds
#
# Revision: 1
# Processed by: cddbd v1.4PL0 Copyright (c) Steve Scherf et al.
# Submitted via: CDex 1.40Beta9
#
DISCID=a70af20c
DTITLE=Bellamy Brothers - Lonely Planet
DYEAR=1999
DGENRE=Country
TTITLE0=Houston (We Have A Problem)
TTITLE1=Highway Of Regret
TTITLE2=Come Back Gene And Roy
TTITLE3=Vertical Expression (Of Horizontal Desire)
TTITLE4=Kookaburra Blues
TTITLE5=Lonely Planet
TTITLE6=The Ex-Files (with Buck Owens)
TTITLE7=Old Country - New Country
TTITLE8=Shero
TTITLE9=Fountain Of Middle Age
TTITLE10=Forever Aint' Long Enough
TTITLE11=Vertical Expression (Of Horizontal Desire) (with Freddy Fender)
EXTD=YEAR: 1999 ID3G: 2
EXTT0=
EXTT1=
EXTT2=
EXTT3=
EXTT4=
EXTT5=
EXTT6=
EXTT7=
EXTT8=
EXTT9=
EXTT10=
EXTT11=
PLAYORDER=
